# xmcd
#
# Track frame offsets:
#	150
#	10389
#	22929
#	33149
#	44155
#	55072
#	63316
#	75783
#	86305
#	96837
#	104132
#	112962
#	119884
#	128807
#	138279
#	151451
#	163154
#	175374
#	184930
#	194230
#	206769
#	215463
#	226716
#	237215
#	245396
#	255748
#	264716
#	272191
#	283790
#	292851
#
# Disc length: 4022 seconds
#
# Revision: 1
# Processed by: cddbd v1.5.2PL0 Copyright (c) Steve Scherf et al.
# Submitted via: audiograbber 1.83.01
#
DISCID=b70fb41e
DTITLE=Vaiours - Windy City Bop [CD2]
DYEAR=1900
DGENRE=Blues
TTITLE0=Billy Prager and his Caravans - Do It Bop
TTITLE1=Bobby Sisco - Go, Go, Go
TTITLE2=Dale Hawkins - Little Pig
TTITLE3=Billy Barrix - Almost
TTITLE4=Herbie Duncan - Hot Lips Baby
TTITLE5=Wolf - Stompin' To Te Beat
TTITLE6=Hank Mizell - Jungle Rock
TTITLE7=Jimmy Stewart and the Night Hawks - Nuthin' But a Nuthin'
TTITLE8=Frank Deacon and the Mad Lads - Just a Little Bit More
TTITLE9=Uncle Buck Lite and the Rhythm Rockers - Mr Ducktail
TTITLE10=J Mikel and the Hepcats - Sweetest Thing
TTITLE11=J Mikel and the Hepcats - Bettyjean Rock
TTITLE12=Mickey Hawks - Rock and Roll Rhythm
TTITLE13=Bing Day - Pony Tail Partner
TTITLE14=Eddie Fontaine - Nothin' Shakin'
TTITLE15=Lou Josie - Why Did You Leave Me?
TTITLE16=Harry Carter and the Dixie Rhythmiares - Jump, Baby, Jump
TTITLE17=Herbie Duncan - Little Angel
TTITLE18=Jackie Cray - Maybelle
TTITLE19=Dale Hawkins - Baby Baby
TTITLE20=Bobby Dean - Just Go Wild Over Rock and Roll
TTITLE21=Dick Glasser - Crazy Love
TTITLE22=Harry Carter and the Rhythmaires - I Don't Want You
TTITLE23=Billy Prager and his Caravans - Everybody's Rockin'
TTITLE24=The Braves - Won't You Come Along With Me
TTITLE25=Joe Penny - Bip a Little, Bop a Lot
TTITLE26=Mickey Hawks - Bip Bop Boom
TTITLE27=Clear Waters - Hill Billy Blues
TTITLE28=The Braves - Woodpecker Rock
TTITLE29=Magic Sam - 21 Days In Jail
EXTD=
EXTT0=
EXTT1=
EXTT2=
EXTT3=
EXTT4=
EXTT5=
EXTT6=
EXTT7=
EXTT8=
EXTT9=
EXTT10=
EXTT11=
EXTT12=
EXTT13=
EXTT14=
EXTT15=
EXTT16=
EXTT17=
EXTT18=
EXTT19=
EXTT20=
EXTT21=
EXTT22=
EXTT23=
EXTT24=
EXTT25=
EXTT26=
EXTT27=
EXTT28=
EXTT29=
PLAYORDER=
